<svg xmlns="http://www.w3.org/2000/svg" viewBox="0 0 24 24" width="24" height="24" fill="none" stroke="currentColor" stroke-width="2" stroke-linecap="round" stroke-linejoin="round">
  <path d="M12 22C6.477 22 2 17.523 2 12S6.477 2 12 2s10 4.477 10 10-4.477 10-10 10z" stroke="none" fill="#000"/>
  <path d="M12 22C6.477 22 2 17.523 2 12S6.477 2 12 2s10 4.477 10 10-4.477 10-10 10z" stroke="none" fill="white" fill-opacity="0.1"/>
  <path d="M16 7c-.9 0-1.7.4-2.3 1-.5-.6-1.3-1-2.2-1s-1.7.4-2.2 1c-.6-.6-1.4-1-2.3-1-1.7 0-3 1.3-3 3 0 1.5 1.2 2.7 2.7 2.9l.1.1h10l.1-.1c1.5-.2 2.7-1.4 2.7-2.9 0-1.7-1.3-3-3-3zM12 8.5v8M9 12.5h6" stroke="white"/>
</svg> 