<svg xmlns="http://www.w3.org/2000/svg" viewBox="0 0 24 24" width="24" height="24" fill="none" stroke="currentColor" stroke-width="2" stroke-linecap="round" stroke-linejoin="round">
  <path d="M12 22C6.477 22 2 17.523 2 12S6.477 2 12 2s10 4.477 10 10-4.477 10-10 10z" stroke="none" fill="#1877F2"/>
  <path d="M12 22C6.477 22 2 17.523 2 12S6.477 2 12 2s10 4.477 10 10-4.477 10-10 10z" stroke="none" fill="white" fill-opacity="0.2"/>
  <path d="M16 12h-3v8h-3v-8H8V9h2V7.5C10 5.57 11.57 4 13.5 4H16v3h-2.5c-.27 0-.5.23-.5.5V9h3v3z" stroke="none" fill="white"/>
</svg> 