<svg xmlns="http://www.w3.org/2000/svg" viewBox="0 0 24 24" width="24" height="24" fill="none" stroke="currentColor" stroke-width="2" stroke-linecap="round" stroke-linejoin="round">
  <path d="M12 22C6.477 22 2 17.523 2 12S6.477 2 12 2s10 4.477 10 10-4.477 10-10 10z" stroke="none" fill="#4285F4"/>
  <path d="M12 22C6.477 22 2 17.523 2 12S6.477 2 12 2s10 4.477 10 10-4.477 10-10 10z" stroke="none" fill="white" fill-opacity="0.3"/>
  <path d="M17.5 12.5h-6v2h3.5a3.5 3.5 0 01-3.5 3 4 4 0 010-8c1 0 1.9.4 2.6 1l1.4-1.4A6 6 0 0017.5 12.5z" stroke="none" fill="white"/>
</svg> 